<?xml version="1.0" encoding="utf-8"?>
<!-- Generator: Adobe Illustrator 23.1.1, SVG Export Plug-In . SVG Version: 6.00 Build 0)  -->
<svg version="1.1" id="Layer_1" xmlns="http://www.w3.org/2000/svg" xmlns:xlink="http://www.w3.org/1999/xlink" x="0px" y="0px"
	 viewBox="0 0 178.8 48.4" style="enable-background:new 0 0 178.8 48.4;" xml:space="preserve">
<style type="text/css">
	.st0{fill:#FFFFFF;}
</style>
<title>as_logo</title>
<rect y="39.7" class="st0" width="34" height="8.5"/>
<rect x="25.5" y="8.5" class="st0" width="8.5" height="25.5"/>
<rect y="8.5" class="st0" width="8.5" height="25.5"/>
<rect x="12.8" y="0" class="st0" width="8.5" height="34"/>
<path class="st0" d="M58.8,24.1l-1.6-4.6h-6.4l-1.6,4.6h-2.1L53,7.9h2.1l5.8,16.2H58.8z M54,10.5l-2.6,7.2h5.1L54,10.5z"/>
<path class="st0" d="M73.2,24.1l-1.6-4.6h-6.4l-1.6,4.6h-2.1l5.9-16.2h2.1l5.8,16.2H73.2z M68.4,10.5l-2.6,7.2H71L68.4,10.5z"/>
<path class="st0" d="M86.5,24.1l-4.3-6.8h-2.1v6.8h-2V8.4h4.8c1.9,0,2.8,0.3,3.7,1.2c0.8,0.8,1.3,1.9,1.2,3.1c0,1.2-0.5,2.4-1.4,3.3
	c-0.6,0.7-1.5,1.1-2.4,1.2l4.7,7L86.5,24.1z M84.9,10.5C84.4,10.1,84,10,82.6,10h-2.6v5.7h2.6c2.1,0,3.2-1.1,3.2-3.1
	C85.9,11.8,85.5,11,84.9,10.5z"/>
<path class="st0" d="M103.5,24.1v-7.2h-9.3v7.2h-2V8.4h2v6.8h9.3V8.4h2v15.7H103.5z"/>
<path class="st0" d="M121,23.1c-1.2,1-2.7,1.5-4.3,1.5c-1.6,0-3.1-0.5-4.3-1.5c-1.3-1.1-2-2.7-1.8-4.4V8.4h2v9.8
	c0,2,0.1,2.5,0.9,3.3c1.8,1.8,4.8,1.8,6.6,0c0.8-0.8,0.9-1.4,0.9-3.3V8.4h2v10.3C122.8,20.8,122.3,22,121,23.1z"/>
<path class="st0" d="M135.8,11c-0.5-0.3-1.1-0.6-1.6-0.8c-0.7-0.2-1.4-0.3-2.2-0.3c-1.8,0-3,0.9-3,2.2c0,1.2,0.7,1.8,3.9,3.5
	c0.9,0.4,1.7,1,2.5,1.6c0.8,0.7,1.2,1.8,1.2,2.9c0,2.7-2,4.4-5.2,4.4c-1,0-2-0.2-2.9-0.5c-0.7-0.3-1.4-0.7-2-1.2l1-1.5
	c0.6,0.4,1.2,0.7,1.8,1c0.7,0.3,1.5,0.4,2.3,0.4c1.9,0,3-0.9,3-2.4c0-0.4-0.1-0.8-0.2-1.1c-0.3-0.5-0.8-1-1.3-1.3
	c-0.3-0.1-1.1-0.6-2.6-1.4c-2.4-1.3-3.4-2.5-3.4-4.1c0-2.5,2.1-4.2,5.2-4.2c0.9,0,1.8,0.1,2.6,0.4c0.7,0.2,1.3,0.5,1.9,0.9L135.8,11
	z"/>
<path class="st0" d="M57.8,36c-1.3-0.6-2.7-1-4.1-1.1c-1.4,0-2.3,0.6-2.3,1.5c0,0.7,0.4,1.1,1.5,1.7c1.7,0.8,3.3,1.8,4.7,3
	c0.7,0.8,1.1,1.8,1.1,2.8c0,2.8-2.1,4.5-5.5,4.5c-0.5,0-0.9,0-1.4-0.1c-1.2-0.2-2.3-0.5-3.3-1.1l-1-0.5l1.3-2.8
	c0.7,0.4,1.4,0.8,2.2,1.2c0.7,0.3,1.5,0.4,2.3,0.5c1.4,0,2.3-0.6,2.3-1.6c0-0.7-0.4-1.1-1.4-1.7l-2.4-1.4c-2.8-1.6-3.6-2.7-3.6-4.4
	c0-0.8,0.2-1.5,0.6-2.2c0.3-0.5,0.7-0.9,1.2-1.2c1.2-0.8,2.6-1.2,4-1c1,0,2,0.1,3,0.4c0.8,0.2,1.5,0.5,2.2,0.9L57.8,36z"/>
<path class="st0" d="M67.8,34.8V48h-3V34.8h-4.7v-2.5h12.5v2.5H67.8z"/>
<path class="st0" d="M82.6,48l-1.2-3.9h-5.3L74.8,48h-3.2l5.7-15.8H80L85.7,48H82.6z M78.7,35.8l-1.8,5.7h3.7L78.7,35.8z"/>
<path class="st0" d="M99.6,45.7c-1.5,1.5-3.5,2.3-6.4,2.3h-5.8V32.2h5.8c3,0,4.8,0.7,6.4,2.3c1.4,1.5,2.1,3.5,2.1,5.5
	C101.8,42.1,101,44.2,99.6,45.7z M96.7,35.8c-1.1-0.7-2.4-1-3.7-0.9h-2.4v10.5H93c3.6,0,5.6-1.9,5.6-5.2
	C98.7,38.5,98,36.9,96.7,35.8z"/>
<path class="st0" d="M113.2,36c-1.3-0.6-2.7-1-4.1-1.1c-1.4,0-2.3,0.6-2.3,1.5c0,0.7,0.4,1.1,1.5,1.7c1.7,0.8,3.3,1.8,4.7,3
	c0.7,0.8,1.1,1.8,1.1,2.8c0,2.8-2.1,4.5-5.5,4.5c-0.5,0-0.9,0-1.4-0.1c-1.2-0.2-2.3-0.5-3.3-1.1l-1-0.5l1.3-2.8
	c0.7,0.4,1.4,0.8,2.2,1.2c0.7,0.3,1.5,0.4,2.3,0.5c1.4,0,2.3-0.6,2.3-1.6c0-0.7-0.4-1.1-1.4-1.7l-2.4-1.4c-2.8-1.6-3.7-2.7-3.7-4.4
	c0-0.8,0.2-1.5,0.6-2.2c0.3-0.5,0.7-0.9,1.2-1.2c1.2-0.8,2.6-1.2,4-1c1,0,2,0.1,3,0.4c0.8,0.2,1.5,0.5,2.2,0.9L113.2,36z"/>
<path class="st0" d="M126.4,48l-1.2-3.9h-5.3l-1.3,3.9h-3.2l5.7-15.8h2.7l5.7,15.8H126.4z M122.5,35.8l-1.8,5.7h3.7L122.5,35.8z"/>
<path class="st0" d="M139.8,48l-3.6-6.3h-1.5V48h-3V32.2h5.3c2.3,0,3.3,0.3,4.3,1.2c0.9,0.9,1.4,2.1,1.3,3.4c0.1,1.1-0.2,2.1-0.9,3
	c-0.6,0.8-1.5,1.3-2.5,1.5l3.9,6.7H139.8z M136.7,34.8h-2v4.3h2c1.9,0,2.7-0.7,2.7-2.2S138.6,34.8,136.7,34.8L136.7,34.8z"/>
<path class="st0" d="M154,48l-5.2-7.5V48h-3V32.2h3v7.3l4.9-7.3h3.5l-5.4,7.7l5.7,8.1H154z"/>
<path class="st0" d="M159.7,48V32.2h3V48H159.7z"/>
<path class="st0" d="M173,48.4h-2.1L165,32.2h3.3l3.6,10.6c0.1,0.2,0.1,0.5,0.2,0.7c0-0.3,0-0.5,0.1-0.7l3.4-10.6h3.1L173,48.4z"/>
</svg>
